# xmcd
#
# Track frame offsets:
#	150
#	15076
#	32004
#	48742
#	60409
#	75996
#	82687
#	97869
#	107796
#	116484
#	127461
#	141421
#	150667
#	170769
#
# Disc length: 2452 seconds
#
# Revision: 1
# Processed by: cddbd v1.5.2PL0 Copyright (c) Steve Scherf et al.
# Submitted via: audiograbber 1.83.01
#
DISCID=a909920e
DTITLE=Reeb Willms - Now's The Time
DYEAR=2011
DGENRE=Country
TTITLE0=You Tied a Love Knot in My Heart
TTITLE1=Cry Cry Darlin'
TTITLE2=Forsaken Lover
TTITLE3=Alabama Waltz
TTITLE4=Whispering Forest
TTITLE5=Gathering Flowers
TTITLE6=An Aching Heart
TTITLE7=Memories of You Sweetheart
TTITLE8=I'll Be There
TTITLE9=Waltz of the Wind
TTITLE10=A-11
TTITLE11=You Done Me Wrong
TTITLE12=Silver Dagger
TTITLE13=Last of My Kind
EXTD=
EXTT0=
EXTT1=
EXTT2=
EXTT3=
EXTT4=
EXTT5=
EXTT6=
EXTT7=
EXTT8=
EXTT9=
EXTT10=
EXTT11=
EXTT12=
EXTT13=
PLAYORDER=
